<svg width="506" height="123" viewBox="0 0 506 123" fill="none" xmlns="http://www.w3.org/2000/svg">
<path d="M36.056 95.28C30.5947 95.28 25.7307 93.9147 21.464 91.184C17.1973 88.4533 13.8267 84.9973 11.352 80.816V121.264H0.0880003V27.184H10.072V39.728C12.7173 35.632 16.1733 32.3467 20.44 29.872C24.7067 27.312 29.3573 26.032 34.392 26.032C39 26.032 43.224 26.9707 47.064 28.848C50.904 30.7253 54.232 33.2853 57.048 36.528C59.864 39.7707 62.04 43.4827 63.576 47.664C65.1973 51.76 66.008 56.0693 66.008 60.592C66.008 66.9067 64.728 72.7093 62.168 78C59.6933 83.2907 56.1947 87.5147 51.672 90.672C47.1493 93.744 41.944 95.28 36.056 95.28ZM32.6 85.552C37.0373 85.552 40.8773 84.3573 44.12 81.968C47.3627 79.5787 49.88 76.464 51.672 72.624C53.5493 68.784 54.488 64.7733 54.488 60.592C54.488 56.0693 53.464 51.9307 51.416 48.176C49.4533 44.4213 46.7227 41.4347 43.224 39.216C39.8107 36.912 35.928 35.76 31.576 35.76C28.9307 35.76 26.1147 36.4427 23.128 37.808C20.2267 39.1733 17.6667 41.008 15.448 43.312C13.3147 45.5307 11.9493 48.0053 11.352 50.736V69.808C13.2293 74.2453 16.088 78 19.928 81.072C23.8533 84.0587 28.0773 85.552 32.6 85.552ZM140.382 94H129.118V56.624C129.118 49.7973 127.881 44.6773 125.406 41.264C123.017 37.8507 119.561 36.144 115.038 36.144C112.137 36.144 109.193 36.912 106.206 38.448C103.305 39.984 100.745 42.0747 98.526 44.72C96.3073 47.28 94.686 50.2667 93.662 53.68V94H82.398V0.559998H93.662V41.52C96.3073 36.7413 99.8913 32.9867 104.414 30.256C109.022 27.44 113.971 26.032 119.262 26.032C124.553 26.032 128.734 27.2693 131.806 29.744C134.878 32.2187 137.054 35.5893 138.334 39.856C139.699 44.0373 140.382 48.7733 140.382 54.064V94ZM162.03 112.176C163.139 112.261 164.249 112.347 165.358 112.432C166.467 112.603 167.321 112.688 167.918 112.688C169.283 112.688 170.478 112.219 171.502 111.28C172.526 110.341 173.635 108.507 174.83 105.776C176.11 103.131 177.731 99.2053 179.694 94L151.406 27.184H163.31L185.838 82.608L206.19 27.184H217.326L184.814 111.536C183.705 114.523 181.699 117.125 178.798 119.344C175.982 121.648 172.185 122.8 167.406 122.8C166.638 122.8 165.827 122.757 164.974 122.672C164.206 122.587 163.225 122.416 162.03 122.16V112.176ZM252.43 95.28C246.883 95.28 241.678 94.384 236.814 92.592C231.95 90.7147 227.769 87.9413 224.27 84.272L228.622 76.336C232.462 79.92 236.302 82.48 240.142 84.016C243.982 85.552 247.907 86.32 251.918 86.32C256.526 86.32 260.281 85.4667 263.182 83.76C266.083 81.968 267.534 79.3653 267.534 75.952C267.534 73.4773 266.766 71.6427 265.23 70.448C263.779 69.2533 261.689 68.272 258.958 67.504C256.227 66.6507 252.985 65.712 249.23 64.688C242.318 62.7253 237.027 60.4213 233.358 57.776C229.774 55.0453 227.982 51.0773 227.982 45.872C227.982 39.5573 230.371 34.6933 235.15 31.28C240.014 27.7813 246.201 26.032 253.71 26.032C263.779 26.032 271.715 29.0613 277.518 35.12L272.398 42.928C267.193 37.552 260.75 34.864 253.07 34.864C250.766 34.864 248.505 35.1627 246.286 35.76C244.067 36.272 242.233 37.2533 240.782 38.704C239.331 40.0693 238.606 42.032 238.606 44.592C238.606 47.7493 239.886 50.0107 242.446 51.376C245.006 52.7413 248.761 54.1493 253.71 55.6C258.745 57.0507 263.097 58.5013 266.766 59.952C270.521 61.4027 273.422 63.28 275.47 65.584C277.518 67.888 278.542 71.088 278.542 75.184C278.542 81.4987 276.153 86.448 271.374 90.032C266.595 93.5307 260.281 95.28 252.43 95.28Z" fill="#6ED3C4"/>
<path d="M297.65 112.176C298.759 112.261 299.869 112.347 300.978 112.432C302.087 112.603 302.941 112.688 303.538 112.688C304.903 112.688 306.098 112.219 307.122 111.28C308.146 110.341 309.255 108.507 310.45 105.776C311.73 103.131 313.351 99.2053 315.314 94L287.026 27.184H298.93L321.458 82.608L341.81 27.184H352.946L320.434 111.536C319.325 114.523 317.319 117.125 314.418 119.344C311.602 121.648 307.805 122.8 303.026 122.8C302.258 122.8 301.447 122.757 300.594 122.672C299.826 122.587 298.845 122.416 297.65 122.16V112.176ZM393.697 95.28C387.041 95.28 381.153 93.7013 376.033 90.544C370.998 87.3013 367.073 83.0773 364.257 77.872C361.441 72.5813 360.033 66.864 360.033 60.72C360.033 54.4907 361.441 48.7733 364.257 43.568C367.158 38.2773 371.126 34.0533 376.161 30.896C381.281 27.6533 387.126 26.032 393.697 26.032C400.353 26.032 406.198 27.6533 411.233 30.896C416.353 34.0533 420.321 38.2773 423.137 43.568C426.038 48.7733 427.489 54.4907 427.489 60.72C427.489 66.864 426.038 72.5813 423.137 77.872C420.321 83.0773 416.396 87.3013 411.361 90.544C406.326 93.7013 400.438 95.28 393.697 95.28ZM371.553 60.848C371.553 65.456 372.534 69.6373 374.497 73.392C376.545 77.1467 379.233 80.1333 382.561 82.352C385.889 84.4853 389.601 85.552 393.697 85.552C397.793 85.552 401.505 84.4427 404.833 82.224C408.246 80.0053 410.934 77.0187 412.897 73.264C414.945 69.424 415.969 65.2 415.969 60.592C415.969 55.984 414.945 51.8027 412.897 48.048C410.934 44.2933 408.246 41.3067 404.833 39.088C401.505 36.8693 397.793 35.76 393.697 35.76C389.601 35.76 385.889 36.912 382.561 39.216C379.233 41.4347 376.545 44.4213 374.497 48.176C372.534 51.9307 371.553 56.1547 371.553 60.848ZM443.058 67.248V27.184H454.322V65.072C454.322 78.7253 459.058 85.552 468.53 85.552C473.138 85.552 477.447 84.1013 481.458 81.2C485.554 78.2133 488.583 74.16 490.546 69.04V27.184H501.81V81.2C501.81 83.8453 503.005 85.2107 505.394 85.296V94C504.114 94.1707 503.09 94.256 502.322 94.256C501.639 94.3413 500.957 94.384 500.274 94.384C498.141 94.384 496.306 93.744 494.77 92.464C493.234 91.0987 492.423 89.4347 492.338 87.472L492.082 79.664C489.181 84.6133 485.255 88.4533 480.306 91.184C475.442 93.9147 470.109 95.28 464.306 95.28C450.141 95.28 443.058 85.936 443.058 67.248Z" fill="#F8F8F8"/>
</svg>
