<svg width="746" height="147" viewBox="0 0 746 147" fill="none" xmlns="http://www.w3.org/2000/svg">
<path d="M191.354 115.998C185.381 115.998 180.061 114.504 175.394 111.518C170.728 108.531 167.041 104.751 164.334 100.178L164.334 144.418L152.014 144.418L152.014 41.5177L162.934 41.5177L162.934 55.2377C165.828 50.7577 169.608 47.1643 174.274 44.4576C178.941 41.6577 184.028 40.2577 189.534 40.2577C194.574 40.2577 199.194 41.2843 203.394 43.3377C207.594 45.391 211.234 48.191 214.314 51.7377C217.394 55.2843 219.774 59.3443 221.454 63.9177C223.228 68.3977 224.114 73.111 224.114 78.0577C224.114 84.9643 222.714 91.311 219.914 97.0977C217.208 102.884 213.381 107.504 208.434 110.958C203.488 114.318 197.794 115.998 191.354 115.998ZM187.574 105.358C192.428 105.358 196.628 104.051 200.174 101.438C203.721 98.8243 206.474 95.4177 208.434 91.2177C210.488 87.0177 211.514 82.631 211.514 78.0577C211.514 73.111 210.394 68.5843 208.154 64.4777C206.008 60.371 203.021 57.1043 199.194 54.6777C195.461 52.1577 191.214 50.8977 186.454 50.8977C183.561 50.8977 180.481 51.6443 177.214 53.1377C174.041 54.631 171.241 56.6377 168.814 59.1577C166.481 61.5843 164.988 64.291 164.334 67.2777L164.334 88.1377C166.388 92.991 169.514 97.0977 173.714 100.458C178.008 103.724 182.628 105.358 187.574 105.358ZM305.461 114.598L293.141 114.598L293.141 73.7177C293.141 66.251 291.787 60.651 289.081 56.9177C286.467 53.1843 282.687 51.3177 277.741 51.3177C274.567 51.3177 271.347 52.1577 268.081 53.8377C264.907 55.5177 262.107 57.8043 259.681 60.6977C257.254 63.4977 255.481 66.7643 254.361 70.4977L254.361 114.598L242.041 114.598L242.041 12.3977L254.361 12.3977L254.361 57.1977C257.254 51.971 261.174 47.8643 266.121 44.8777C271.161 41.7977 276.574 40.2577 282.361 40.2577C288.147 40.2577 292.721 41.611 296.081 44.3177C299.441 47.0243 301.821 50.711 303.221 55.3777C304.714 59.951 305.461 65.131 305.461 70.9177L305.461 114.598ZM329.138 134.478C330.352 134.571 331.565 134.664 332.778 134.758C333.992 134.944 334.925 135.038 335.578 135.038C337.072 135.038 338.378 134.524 339.498 133.498C340.618 132.471 341.832 130.464 343.138 127.478C344.538 124.584 346.312 120.291 348.458 114.598L317.518 41.5177L330.538 41.5177L355.178 102.138L377.438 41.5177L389.618 41.5177L354.058 133.778C352.845 137.044 350.652 139.891 347.478 142.318C344.398 144.838 340.245 146.098 335.018 146.098C334.178 146.098 333.292 146.051 332.358 145.958C331.518 145.864 330.445 145.678 329.138 145.398L329.138 134.478ZM428.013 115.998C421.947 115.998 416.253 115.018 410.933 113.058C405.613 111.004 401.04 107.971 397.213 103.958L401.973 95.2777C406.173 99.1977 410.373 101.998 414.573 103.678C418.773 105.358 423.067 106.198 427.453 106.198C432.493 106.198 436.6 105.264 439.773 103.398C442.947 101.438 444.533 98.591 444.533 94.8577C444.533 92.151 443.693 90.1443 442.013 88.8377C440.427 87.531 438.14 86.4577 435.153 85.6177C432.167 84.6843 428.62 83.6577 424.513 82.5377C416.953 80.391 411.167 77.871 407.153 74.9777C403.233 71.991 401.273 67.651 401.273 61.9577C401.273 55.051 403.887 49.731 409.113 45.9977C414.433 42.171 421.2 40.2577 429.413 40.2577C440.427 40.2577 449.107 43.571 455.453 50.1977L449.853 58.7377C444.16 52.8577 437.113 49.9177 428.713 49.9177C426.193 49.9177 423.72 50.2443 421.293 50.8977C418.867 51.4577 416.86 52.531 415.273 54.1177C413.687 55.611 412.893 57.7577 412.893 60.5577C412.893 64.011 414.293 66.4843 417.093 67.9777C419.893 69.471 424 71.011 429.413 72.5977C434.92 74.1843 439.68 75.771 443.693 77.3577C447.8 78.9443 450.973 80.9977 453.213 83.5177C455.453 86.0377 456.573 89.5377 456.573 94.0177C456.573 100.924 453.96 106.338 448.733 110.258C443.507 114.084 436.6 115.998 428.013 115.998Z" fill="#6ED3C4"/>
<path d="M477.473 134.478C478.686 134.571 479.899 134.664 481.113 134.758C482.326 134.944 483.259 135.038 483.913 135.038C485.406 135.038 486.713 134.524 487.833 133.498C488.953 132.471 490.166 130.464 491.473 127.478C492.873 124.584 494.646 120.291 496.793 114.598L465.853 41.5177L478.873 41.5177L503.513 102.138L525.773 41.5177L537.953 41.5177L502.393 133.778C501.179 137.044 498.986 139.891 495.813 142.318C492.733 144.838 488.579 146.098 483.353 146.098C482.513 146.098 481.626 146.051 480.693 145.958C479.853 145.864 478.779 145.678 477.473 145.398L477.473 134.478ZM582.524 115.998C575.244 115.998 568.804 114.271 563.204 110.818C557.697 107.271 553.404 102.651 550.324 96.9577C547.244 91.171 545.704 84.9177 545.704 78.1977C545.704 71.3843 547.244 65.131 550.324 59.4377C553.497 53.651 557.837 49.031 563.344 45.5777C568.944 42.031 575.337 40.2577 582.524 40.2577C589.804 40.2577 596.197 42.031 601.704 45.5777C607.304 49.031 611.644 53.651 614.724 59.4377C617.897 65.131 619.484 71.3843 619.484 78.1977C619.484 84.9177 617.897 91.171 614.724 96.9577C611.644 102.651 607.351 107.271 601.844 110.818C596.337 114.271 589.897 115.998 582.524 115.998ZM558.304 78.3377C558.304 83.3777 559.377 87.951 561.524 92.0577C563.764 96.1643 566.704 99.431 570.344 101.858C573.984 104.191 578.044 105.358 582.524 105.358C587.004 105.358 591.064 104.144 594.704 101.718C598.437 99.291 601.377 96.0243 603.524 91.9177C605.764 87.7177 606.884 83.0977 606.884 78.0577C606.884 73.0177 605.764 68.4443 603.524 64.3377C601.377 60.231 598.437 56.9643 594.704 54.5377C591.064 52.111 587.004 50.8977 582.524 50.8977C578.044 50.8977 573.984 52.1577 570.344 54.6777C566.704 57.1043 563.764 60.371 561.524 64.4777C559.377 68.5843 558.304 73.2043 558.304 78.3377ZM636.513 85.3377L636.513 41.5177L648.833 41.5177L648.833 82.9577C648.833 97.891 654.013 105.358 664.373 105.358C669.413 105.358 674.126 103.771 678.513 100.598C682.993 97.331 686.306 92.8977 688.453 87.2977L688.453 41.5177L700.773 41.5177L700.773 100.598C700.773 103.491 702.079 104.984 704.693 105.078L704.693 114.598C703.293 114.784 702.173 114.878 701.333 114.878C700.586 114.971 699.839 115.018 699.093 115.018C696.759 115.018 694.753 114.318 693.073 112.918C691.393 111.424 690.506 109.604 690.413 107.458L690.133 98.9177C686.959 104.331 682.666 108.531 677.253 111.518C671.933 114.504 666.099 115.998 659.753 115.998C644.259 115.998 636.513 105.778 636.513 85.3377Z" fill="#F8F8F8"/>
<path d="M17.4515 71.7741C24.1503 71.7741 29.5807 66.3437 29.5807 59.6449C29.5807 52.9461 24.1503 47.5156 17.4515 47.5156C10.7527 47.5156 5.32227 52.9461 5.32227 59.6449C5.32227 66.3437 10.7527 71.7741 17.4515 71.7741Z" stroke="#F8F8F8" stroke-width="9" stroke-miterlimit="10" stroke-linecap="square" stroke-linejoin="round"/>
<path d="M48.2861 6.27344C45.7892 11.2802 40.7824 50.5881 50.7831 54.1791C60.7838 57.7701 89.2929 55.2216 97.7877 66.9985C106.283 78.7754 117.326 136.965 117.287 141.367" stroke="#F8F8F8" stroke-width="9" stroke-miterlimit="10" stroke-linecap="square" stroke-linejoin="round"/>
<path d="M42.1838 116.198C40.4462 111.191 36.9453 75.4096 47.95 75.0492C58.9546 74.6888 84.4648 72.6938 82.2124 80.6867C79.9471 88.6924 49.9063 141.013 44.9639 141.695C40.0343 142.377 35.4395 141.695 35.4395 141.695" stroke="#F8F8F8" stroke-width="9" stroke-miterlimit="10" stroke-linecap="square" stroke-linejoin="round"/>
</svg>
